<svg xmlns="http://www.w3.org/2000/svg" viewBox="0 0 822.72 822.72"><defs><style>.cls-1,.cls-2{fill:#be2541;}.cls-1{stroke:#1d1d27;stroke-miterlimit:10;stroke-width:4px;}.cls-3{fill:#1d1d27;}.cls-4{fill:#bebebe;}</style></defs><g id="Camada_2" data-name="Camada 2"><g id="Logo"><path class="cls-1" d="M641.72,410.82C641.72,283.89,538.59,181,411.38,181A232.72,232.72,0,0,0,368.69,185h0l-.39.08q-8.44,1.59-16.67,3.79l-.3.08C253.24,215.26,181,304.62,181,410.82a230.26,230.26,0,0,0,4.1,43.27L185,454A230.56,230.56,0,0,0,368.69,637.77l-.4-1.17a231.83,231.83,0,0,0,86.13,0l-.39,1.16A230.56,230.56,0,0,0,637.77,454l-.14.05A231,231,0,0,0,641.72,410.82Z"/><circle class="cls-2" cx="411.36" cy="411.36" r="164.54"/><path class="cls-3" d="M740.3,401.68q-.07-3.18-.25-6.35C731.94,226.59,596.13,90.78,427.39,82.67q-3.17-.18-6.35-.25-4.82-.15-9.68-.15t-9.68.15q-3.18.08-6.35.25C226.59,90.78,90.78,226.59,82.67,395.33q-.18,3.17-.25,6.35-.15,4.81-.15,9.68t.15,9.68q.08,3.18.25,6.35c8.11,168.74,143.92,304.55,312.66,312.66q3.17.18,6.35.25,4.81.15,9.68.15t9.68-.15q3.18-.07,6.35-.25c168.74-8.11,304.55-143.92,312.66-312.66q.18-3.17.25-6.35.15-4.82.15-9.68T740.3,401.68ZM393.92,89.27C386.12,125.32,378,157,368.69,185c-16.8,50.56-37.31,88.67-66.19,117.55s-67,49.39-117.55,66.19C157,378,125.32,386.12,89.27,393.92,98,229.9,229.9,98,393.92,89.27ZM89.27,428.8C125.32,436.6,157,444.75,185,454c50.56,16.8,88.67,37.31,117.55,66.19s49.39,67,66.19,117.55c9.28,27.91,17.43,59.63,25.23,95.68C229.9,724.68,98,592.82,89.27,428.8ZM411.36,641.72A231.77,231.77,0,0,1,375.59,639c-17.31-53-38.51-92.89-68.73-123.1s-70.06-51.42-123.1-68.71a233.43,233.43,0,0,1,0-71.58c53-17.29,92.89-38.5,123.1-68.71s51.42-70.06,68.73-123.1a233.17,233.17,0,0,1,71.54,0c17.31,53,38.51,92.89,68.73,123.1s70.06,51.42,123.1,68.71a233.43,233.43,0,0,1,0,71.58c-53,17.29-92.89,38.5-123.1,68.71S464.44,585.92,447.13,639A231.77,231.77,0,0,1,411.36,641.72Zm17.44,91.73c7.8-36.05,15.95-67.77,25.23-95.68,16.8-50.56,37.31-88.67,66.19-117.55s67-49.39,117.55-66.19c27.91-9.28,59.63-17.43,95.68-25.23C724.68,592.82,592.82,724.68,428.8,733.45Zm209-364.76c-50.56-16.8-88.67-37.31-117.55-66.19S470.83,235.51,454,185C444.75,157,436.6,125.32,428.8,89.27,592.82,98,724.68,229.9,733.45,393.92,697.4,386.12,665.68,378,637.77,368.69Z"/><path class="cls-4" d="M639,375.57c-53-17.29-92.89-38.5-123.1-68.71s-51.42-70.06-68.73-123.1a233.17,233.17,0,0,0-71.54,0c-17.31,53-38.51,92.89-68.73,123.1s-70.06,51.42-123.1,68.71a233.43,233.43,0,0,0,0,71.58c53,17.29,92.89,38.5,123.1,68.71s51.42,70.06,68.73,123.1a233.17,233.17,0,0,0,71.54,0c17.31-53,38.51-92.89,68.73-123.1s70.06-51.42,123.1-68.71a233.43,233.43,0,0,0,0-71.58ZM411.36,575.9c-22.72-123.4-41.14-141.82-164.54-164.54,123.4-22.72,141.82-41.14,164.54-164.54,22.72,123.4,41.14,141.82,164.54,164.54C452.5,434.08,434.08,452.5,411.36,575.9Z"/><path class="cls-4" d="M741.12,426.14c.08-1.68.14-3.38.18-5.08.1-3.21.15-6.47.15-9.7s-.05-6.49-.15-9.71c0-1.69-.1-3.39-.18-5.07,19.35,4.09,40.61,8.26,65,12.74l11.12,2-11.12,2C781.72,417.88,760.45,422.05,741.12,426.14Z"/><path class="cls-3" d="M742.18,397.83c19,4,39.88,8.09,63.71,12.47l5.77,1.06-5.77,1.06c-23.83,4.38-44.71,8.47-63.71,12.47.05-1.26.09-2.53.12-3.79.1-3.22.15-6.49.15-9.74s-.05-6.52-.15-9.72c0-1.27-.07-2.55-.12-3.81m-2.13-2.5q.18,3.17.25,6.35.15,4.81.15,9.68T740.3,421q-.07,3.18-.25,6.35,31-6.57,66.2-13l16.47-3-16.47-3q-35.29-6.49-66.2-13Z"/><path class="cls-4" d="M409.32,806.07c-4.48-24.36-8.65-45.62-12.74-65,1.69.08,3.39.14,5.08.18,3.2.1,6.46.15,9.7.15s6.5-.05,9.71-.15c1.68,0,3.38-.1,5.07-.18-4.09,19.33-8.26,40.59-12.74,65l-2,11.12Z"/><path class="cls-3" d="M424.89,742.18c-4,19-8.09,39.89-12.47,63.71l-1.06,5.77-1.06-5.77c-4.38-23.82-8.47-44.7-12.47-63.71,1.26.05,2.53.09,3.79.12,3.22.1,6.49.15,9.74.15s6.52-.05,9.72-.15c1.27,0,2.55-.07,3.81-.12m2.5-2.13q-3.17.18-6.35.25-4.82.15-9.68.15t-9.68-.15q-3.18-.07-6.35-.25,6.57,31,13,66.2l3,16.47,3-16.47q6.48-35.29,13-66.2Z"/><path class="cls-4" d="M426.14,81.6c-1.69-.08-3.39-.14-5.08-.18-3.2-.1-6.46-.15-9.7-.15s-6.5,0-9.71.15c-1.68,0-3.38.1-5.07.18,4.09-19.33,8.26-40.59,12.74-64.95l2-11.12,2,11.12C417.88,41,422.05,62.27,426.14,81.6Z"/><path class="cls-3" d="M411.36,11.06l1.06,5.77c4.38,23.82,8.47,44.7,12.47,63.71-1.26-.05-2.53-.09-3.79-.12-3.22-.1-6.49-.15-9.74-.15s-6.52,0-9.72.15c-1.27,0-2.55.07-3.81.12,4-19,8.09-39.89,12.47-63.71l1.06-5.77m0-11.06-3,16.47q-6.49,35.3-13,66.2,3.17-.18,6.35-.25,4.81-.15,9.68-.15t9.68.15q3.18.08,6.35.25-6.57-31-13-66.2L411.36,0Z"/><path class="cls-4" d="M81.6,426.14c-19.33-4.09-40.6-8.26-64.95-12.74l-11.12-2,11.12-2c24.34-4.48,45.6-8.65,64.95-12.74-.08,1.68-.14,3.38-.18,5.08-.1,3.2-.15,6.46-.15,9.7s0,6.5.15,9.71C81.46,422.76,81.52,424.46,81.6,426.14Z"/><path class="cls-3" d="M80.54,397.83c-.05,1.26-.09,2.53-.12,3.79-.1,3.22-.15,6.49-.15,9.74s0,6.52.15,9.72c0,1.27.07,2.55.12,3.81-19-4-39.88-8.09-63.71-12.47l-5.77-1.06,5.77-1.06c23.83-4.38,44.71-8.47,63.71-12.47m2.13-2.5q-31,6.57-66.2,13L0,411.36l16.47,3q35.3,6.48,66.2,13-.18-3.17-.25-6.35-.15-4.82-.15-9.68t.15-9.68q.08-3.18.25-6.35Z"/></g></g></svg>